<svg xmlns="http://www.w3.org/2000/svg" width="512" height="512"><path d="m427.1 321.5-9.6-2.5a115.9 115.9 0 0 1-60.5 74.5l4.5 9a125.9 125.9 0 0 0 65.6-81zM39.8 438.6h412.3v10H39.8z"/><path d="m61.3 269.5 1.8-8.9 27.6 10.2 3.5-9.4-29-10.7c3.9-17.2 6.9-26.5 9.4-33.2a29.6 29.6 0 0 1 38.2-17.7 29.6 29.6 0 0 1 17.7 38.3l-1.5 3.7-24.3-8.9-3.5 9.4 23.6 8.7c-3.7 7.7-8.7 17.8-14.5 28.7H44V290l.3 8.4c3.3 55.8 39 102.6 88.3 122.2H39.8v10H452v-10h-92.9A140.9 140.9 0 0 0 447.8 290v-.8a41.6 41.6 0 0 0 34.7-34.7 41.6 41.6 0 0 0-25.5-45.4 25.5 25.5 0 0 0 4.1-19.6 25.4 25.4 0 0 0-36.6-17.4l-.1-.8a51 51 0 0 0-98-9 43.7 43.7 0 0 0-50.3 60l9.2-4a33.7 33.7 0 0 1 38.6-46.4 51 51 0 0 0 6 33l8.6-4.9a41.1 41.1 0 0 1 28.8-60.4 40.6 40.6 0 0 1 47.2 33.4 40.6 40.6 0 0 1-7 30.6l8.2 5.7a50.6 50.6 0 0 0 9.2-25.1 15.3 15.3 0 0 1 26.4 7.3 15.4 15.4 0 0 1-5 14.8c-4.3-.6-8.6-.5-12.8.3l1.8 9.8a32 32 0 1 1 6.3 63.3h-55c15-21.9 27.7-23 27.8-23l-.4-10c-2 0-20 1.5-39.3 33h-2.5a52.6 52.6 0 0 0-77.9-51.9 76.7 76.7 0 0 1-49.2 9.9 254.9 254.9 0 0 0-35-24c-.3-11.2.7-22.5 2.9-33.6l1.2-6H208a22.8 22.8 0 0 0-17.5 8.5 22.8 22.8 0 0 0-17.5-8.4H167l1.1 6c2.2 11 3.2 22.3 3 33.4-8.5 5-19 11.6-29 19.2a39.6 39.6 0 0 0-12.7-34.5 63 63 0 0 0 6.2-4.7c7.2-6 15.5-15 23.5-25.1 8-10.1 14.6-20.4 18.8-28.8 3.4-7 7.3-16.8 1.6-21.3-4.7-3.6-12.4-.6-23 9l.3-3.9c.8-14.9-4-19.8-8-21.4-7.3-2.7-15.5 4.2-22.8 15-1.8-14.8-5.7-22.4-11.7-22.7-7.3-.3-10.7 9.7-12.6 17.3-2.3 9.1-3.8 21.2-4.3 34.1-.6 12.9 0 25 1.5 34.4.5 2.4 1 5.2 1.8 7.8a39.8 39.8 0 0 0-35.5 26c-3.4 9.3-7.7 22.9-13.7 53.6l9.8 2zm74.4-18.2c3.7-3.5 7.8-7 12-10.2a71 71 0 0 0-11 36.6v2h-15a702.2 702.2 0 0 0 14-28.3zm74 12.6h-18.4v10h17c0 2 0 4 .4 5.8H175v-2c0-23.2 6.3-42.4 11.4-53.2v1.5-1.5c1.6-3.3 3.1-5.8 4.2-7.4 3.1 4 8.7 15 12.4 31.7l9.8-2.1a128 128 0 0 0-8-24.4c8 4.5 17.8 10.6 27.1 17.6a36.5 36.5 0 0 0-22.3 24zm-63 15.8v-2c0-19.8 11.8-36 18.9-44 3.4-3.8 6.8-7 10-9.5l-1.8 4.5c-3.3 8.7-8.9 26.7-8.9 49v2h-18.2zM437.8 290c0 72-58.6 130.6-130.6 130.6H184.7A130.7 130.7 0 0 1 54 290v-.3h383.8v.3zm-142.4-16a24.6 24.6 0 1 1 48.5 5.7H296c-.5-1.9-.7-3.8-.7-5.7zm-4.2-33.5a99 99 0 0 0 8-4 42.9 42.9 0 0 1 63 43.2H354a34.6 34.6 0 1 0-68.2 0h-67a26.3 26.3 0 0 1 28.4-31.9c14.4 1.5 29.6-1 43.9-7.3zm-92-52.6c.9-.9 1.8-1.5 2.6-2A169 169 0 0 0 200 208l-4.4-2.3v-9c0-3.4 1.3-6.6 3.6-9zm-20-2a12.4 12.4 0 0 1 6.3 10.9v9l-4.4 2.3c-.1-7.4-.7-14.9-1.8-22.2zm-7.4-57.7c-1.8 5.9-8.2 18.2-20.6 34.1-3 4-6 7.4-8.8 10.5a150.5 150.5 0 0 0 10.5-27.4 96 96 0 0 1 19-17.2zm-26.5-16.7c2.1 2 3.5 17.6-5.7 42.7-9.2 25-20.4 36-23.3 36.2-2.1-2-3.5-17.6 5.7-42.7 9.2-25 20.4-36 23.3-36.2zm-38 34.7c.9-20.2 4-33.7 6.5-39.4 1.3 4.2 3 12.8 3.3 26.5a153.8 153.8 0 0 0-9.8 28.7c-.2-4.7-.2-10 0-15.8z"/><path d="M92.3 239 79 234l3.4-9.3 13.2 4.9zM450.4 262.3c-3.6 2.6-8 3.7-12.4 3l-1.6 9.8a27 27 0 0 0 19.8-4.6 26.5 26.5 0 0 0 6-37.2l-8 5.8a16.5 16.5 0 0 1-3.8 23.2zm-86.2-96.1 2.8-9.6a21.7 21.7 0 0 0-12 41.6l2.8-9.7a11.6 11.6 0 0 1 6.4-22.3zM189.8 99.8h10V87.4h12.4v-10h-12.4V65h-10v12.4h-12.4v10h12.4zM306.9 144.5h10v-12.4h12.4v-10h-12.4v-12.4h-10v12.4h-12.4v10h12.4zM41.4 186.9h10v-12.4h12.4v-10H51.4v-12.4h-10v12.4H29v10h12.4z"/></svg>