<svg xmlns="http://www.w3.org/2000/svg" xmlns:xlink="http://www.w3.org/1999/xlink" data-name="Layer 1" viewBox="0 0 512 512" id="food"><defs><linearGradient id="a" x1="272.27" x2="272.27" y1="24.127" y2="486.524" gradientUnits="userSpaceOnUse"><stop offset="0" stop-color="#00efd1"></stop><stop offset="1" stop-color="#00acea"></stop></linearGradient><linearGradient id="b" x1="175.897" x2="175.897" y1="24.127" y2="486.524" xlink:href="#a"></linearGradient><linearGradient id="c" x1="189.575" x2="189.575" y1="24.127" y2="486.524" xlink:href="#a"></linearGradient></defs><path fill="url(#a)" d="M476.744,115.328q-2.1.783-4.275,1.689c4.7-4.916,8.416-9.572,10.463-13.6a8,8,0,1,0-14.262-7.252c-1.713,3.369-5.573,7.823-10.712,12.821a8,8,0,0,0-13.361-8.8c-11.731,17.657-30.688,35.922-39.915,44.365-9.107-9.251-22.057-14.117-36.1-13.432-18.689.921-36.439,11.312-47.509,27.522L265.028,242H65.171C60.752,242,57,245.209,57,249.628v62.851c0,53.246,38,97.861,88,108.666v54.047A20.7,20.7,0,0,0,165.536,496H344.464A20.7,20.7,0,0,0,365,475.192v-54a111.486,111.486,0,0,0,88-108.716V249.628A7.4,7.4,0,0,0,445.345,242H416.676a59.554,59.554,0,0,0,18.349-30.634c3.6-15.2.321-30.378-9-41.492l-.647-.817c9.381-5.816,26.64-15.584,39.842-17.556a8.01,8.01,0,0,0,2.836-14.845,149.367,149.367,0,0,1,14.272-6.333,8,8,0,0,0-5.589-15ZM349,475.192A4.681,4.681,0,0,1,344.464,480H165.536A4.681,4.681,0,0,1,161,475.192v-51.8c2,.165,4.826.61,7.339.61H341.661c2.506,0,5.339-.441,7.339-.6Zm60.135-95.1A95.05,95.05,0,0,1,341.661,408H168.339c-39.582,0-73.592-25-87.919-59H429.941A101.415,101.415,0,0,1,409.135,380.1ZM437,312.407A97.111,97.111,0,0,1,435,333H75.384A99.318,99.318,0,0,1,73,312.479V258H254.051c-.1,0-.18.255-.255.48l-39.252,58.149A9.121,9.121,0,0,0,225.6,329.923L388.121,258H437ZM419.456,207.492c-3.144,13.275-12.874,24.594-26.1,30.309L241.5,305.167l21.384-31.728a48.717,48.717,0,0,0,4.591,3.177,8,8,0,1,0,8.317-13.668,32.437,32.437,0,0,1-3.928-2.835l15.543-23.061a69.653,69.653,0,0,0,9.6,7.268,8,8,0,0,0,8.517-13.545,53.376,53.376,0,0,1-9.055-7.162l17.287-25.651a80.78,80.78,0,0,0,14.789,13.259,8,8,0,1,0,9.138-13.134,64.674,64.674,0,0,1-12.642-11.529l-2-2.381,11.277-16.733c8.236-12.059,21.341-19.662,35.057-20.338q.962-.048,1.908-.047c9.578,0,17.863,3.629,23.481,10.331l19,22.67C419.9,187.369,421.915,197.111,419.456,207.492Z"></path><path fill="url(#b)" d="M155.414,198.132a243.665,243.665,0,0,0,59.269-7.725c46.77-11.774,77.855-32.166,92.393-60.61,13.666-26.735,8.2-52.2,5.459-61.346l13.988-28.735a8,8,0,0,0-2.988-10.307L303.98,17.329a8,8,0,0,0-10.591,1.988l-22.88,30.328c-.034.033-.074.058-.108.092-.234.231-23.8,23.387-63.292,42.573a253,253,0,0,1-71.2,22.666,228.6,228.6,0,0,1-90.062-3.827,8.006,8.006,0,0,0-8.187,2.832L26.169,128.617a8,8,0,0,0-.458,9.233c.571.9,14.35,22.218,44.747,39.306C89.378,187.792,117.516,198.133,155.414,198.132ZM301.772,34.771l7.2,4.447-8.395,17.245a110.286,110.286,0,0,0-10.936-5.61ZM214.1,106.7c34.281-16.653,57.038-35.93,64.723-42.928,3.912,1.234,11.375,5.01,18.419,9.36,2.03,6.783,6.695,27.652-4.412,49.382-12.347,24.155-39.954,41.776-82.044,52.373-50.9,12.751-95.218,8.964-131.724-11.255-3.33-1.843-6.424-3.749-9.317-5.672l15.412-24.719C138.409,136.516,183.361,121.633,214.1,106.7ZM42.535,133.683l4.565-5.814c6.873,1.525,13.639,2.712,20.3,3.616L56.926,148.279A116.066,116.066,0,0,1,42.535,133.683Z"></path><path fill="url(#c)" d="M104.21,160.88a244.422,244.422,0,0,0,46.761,4.849,205.268,205.268,0,0,0,53.931-7.22c30.166-8.3,55.234-23.488,74.509-45.153a8,8,0,0,0-11.954-10.635c-17.429,19.59-39.279,32.793-66.763,40.352-38.414,10.381-70.13,6.573-93.469,2.094a8,8,0,0,0-3.015,15.713Z"></path></svg>