<svg xmlns="http://www.w3.org/2000/svg" enable-background="new 0 0 2000 2000" viewBox="0 0 2000 2000" id="healthy-study"><path d="M1697.8,1757.5H477.3c-64.7,0-125.6-25.3-171.5-71.3c-45.8-46-71-106.9-70.8-171.7c0.4-133.2,110-241.6,244.4-241.6h1218.4c37.1,0,67.2,30.2,67.2,67.2s-30.2,67.2-67.2,67.2H477.3c-59.5,0-107.9,48.4-107.9,107.9c0,59.5,48.4,107.9,107.9,107.9h1220.5c37.1,0,67.2,30.2,67.2,67.2S1734.8,1757.5,1697.8,1757.5z M479.4,1314.9c-111.3,0-202.1,89.6-202.4,199.7c-0.1,53.5,20.6,103.9,58.5,141.9c37.9,38,88.2,58.9,141.7,58.9h1220.5c13.9,0,25.2-11.3,25.2-25.2s-11.3-25.2-25.2-25.2H477.3c-82.6,0-149.9-67.2-149.9-149.9s67.2-149.9,149.9-149.9h1220.5c13.9,0,25.2-11.3,25.2-25.2s-11.3-25.2-25.2-25.2H479.4z"></path><path d="M1653.6 1665c-6.2 0-12.3-2.7-16.4-7.9-32.1-40.1-49.8-90.5-49.8-142 0-51.5 17.7-101.9 49.8-142 7.3-9 20.5-10.5 29.5-3.3 9.1 7.3 10.5 20.5 3.3 29.5-53.7 67.1-53.7 164.4 0 231.4 7.3 9 5.8 22.3-3.3 29.5C1662.9 1663.5 1658.2 1665 1653.6 1665zM1464.1 1536.2H348.4c-11.6 0-21-9.4-21-21s9.4-21 21-21h1115.7c11.6 0 21 9.4 21 21S1475.7 1536.2 1464.1 1536.2z"></path><g><path d="M1522.7,1314.9H302.2c-37.1,0-67.2-30.2-67.2-67.2s30.2-67.2,67.2-67.2h1220.5c59.5,0,107.9-48.4,107.9-107.9c0-59.5-48.4-107.9-107.9-107.9H302.2c-37.1,0-67.2-30.2-67.2-67.2s30.2-67.2,67.2-67.2h1218.4c134.4,0,244,108.4,244.4,241.6c0.2,64.8-25,125.7-70.8,171.7C1648.4,1289.6,1587.5,1314.9,1522.7,1314.9z M302.2,1222.5c-13.9,0-25.2,11.3-25.2,25.2s11.3,25.2,25.2,25.2h1220.5c53.5,0,103.8-20.9,141.7-58.9c37.9-38,58.7-88.4,58.5-141.9c-0.3-110.1-91.1-199.7-202.4-199.7H302.2c-13.9,0-25.2,11.3-25.2,25.2s11.3,25.2,25.2,25.2h1220.5c82.6,0,149.9,67.2,149.9,149.9s-67.2,149.9-149.9,149.9H302.2z"></path><path d="M346.4 1222.5c-4.6 0-9.2-1.5-13.1-4.6-9-7.3-10.5-20.5-3.3-29.5 53.7-67 53.7-164.4 0-231.4-7.3-9.1-5.8-22.3 3.3-29.5 9-7.3 22.3-5.8 29.5 3.3 32.1 40.1 49.8 90.5 49.8 142 0 51.5-17.7 101.9-49.8 142C358.6 1219.8 352.5 1222.5 346.4 1222.5zM1651.6 1093.6H535.9c-11.6 0-21-9.4-21-21s9.4-21 21-21h1115.7c11.6 0 21 9.4 21 21S1663.2 1093.6 1651.6 1093.6z"></path></g><g><path d="M1110.1,872.4c-39.7,0-77.4-14.3-110.1-41.6c-32.7,27.3-70.4,41.6-110.1,41.6c-28.2,0-55.4-7.2-81-21.5c-24.2-13.5-45.8-32.7-64.3-57.1c-37.1-49-57.5-113.7-57.5-182.4s20.4-133.4,57.5-182.4c18.5-24.4,40.1-43.6,64.3-57.1c25.6-14.3,52.8-21.5,81-21.5c39.7,0,77.4,14.3,110.1,41.6c32.7-27.3,70.4-41.6,110.1-41.6c28.2,0,55.4,7.2,81,21.5c24.2,13.5,45.8,32.7,64.3,57.1c37.1,49,57.5,113.7,57.5,182.4s-20.4,133.4-57.5,182.4c-18.5,24.4-40.1,43.6-64.3,57.1C1165.6,865.1,1138.3,872.4,1110.1,872.4z M1000,781.3C1000,781.3,1000,781.3,1000,781.3c5.6,0,11,2.2,14.9,6.2c27.8,28,60.8,42.8,95.2,42.8c41.8,0,81.5-22,111.8-62c31.6-41.7,49-97.5,49-157c0-59.6-17.4-115.3-49-157c-30.3-40-70-62-111.8-62c-34.5,0-67.4,14.8-95.2,42.9c-3.9,4-9.3,6.2-14.9,6.2s-11-2.2-14.9-6.2c-27.8-28-60.8-42.9-95.2-42.9c-41.8,0-81.5,22-111.8,62c-31.6,41.7-49,97.5-49,157s17.4,115.3,49,157c30.3,40,70,62,111.8,62c34.5,0,67.4-14.8,95.2-42.8C989,783.5,994.4,781.3,1000,781.3z"></path><path d="M1000,441.4c-10.1,0-19.1-7.4-20.7-17.7c-0.7-4.6-17.4-114.2,43.5-175c8.2-8.2,21.5-8.2,29.7,0c8.2,8.2,8.2,21.5,0,29.7c-23.4,23.4-30.8,59.4-33,85.5c-2.4,29.6,1.2,52.9,1.3,53.2c1.8,11.5-6,22.2-17.4,24C1002.2,441.3,1001.1,441.4,1000,441.4z"></path></g></svg>