<svg xmlns="http://www.w3.org/2000/svg" data-name="Layer 1" viewBox="0 0 168 168" id="healthy"><circle cx="2" cy="148" r="2" fill="#2d4356"></circle><path fill="#2d4356" d="M11 146H8a2 2 0 0 0 0 4h3a2 2 0 0 0 0-4zm149 0h-3a2 2 0 0 0 0 4h3a2 2 0 0 0 0-4z"></path><circle cx="166" cy="148" r="2" fill="#2d4356"></circle><path fill="#0bceb2" d="M118.154 154h-8.308a2.006 2.006 0 0 0 0 4h8.308a2.006 2.006 0 0 0 0-4zm-60 0h-8.308a2.006 2.006 0 0 0 0 4h8.308a2.006 2.006 0 0 0 0-4zM104 154H64a2 2 0 0 0 0 4h15.94v2H72a2 2 0 0 0 0 4h25a2 2 0 0 0 0-4h-8.94v-2H104a2 2 0 0 0 0-4zm24.188-73.362a2 2 0 0 0-2.407-3.194c-.402.302-9.047 6.93-8.795 17.088-4.876-2.491-12.61-5.244-18.925-2.02a13.682 13.682 0 0 0-6.487 8.093c-2.757 8.043-2.01 15.752 2.42 24.996 2.894 6.039 7.651 14.35 15.509 16.796a14.186 14.186 0 0 0 9.476-.44 14.931 14.931 0 0 0 5.434 1.055 13.586 13.586 0 0 0 4.042-.614c7.858-2.447 12.615-10.758 15.509-16.797 4.43-9.244 5.177-16.953 2.419-24.996a13.68 13.68 0 0 0-6.484-8.093c-6.31-3.219-14.027-.48-18.904 2.008-.21-8.16 7.113-13.821 7.193-13.882zm9.89 15.435a9.672 9.672 0 0 1 4.52 5.827c2.39 6.973 1.7 13.75-2.243 21.974-2.571 5.365-6.724 12.725-13.091 14.707a10.418 10.418 0 0 1-7.461-.614 2.108 2.108 0 0 0-1.647 0 10.423 10.423 0 0 1-7.462.614c-6.366-1.982-10.52-9.342-13.09-14.707-3.943-8.224-4.634-15-2.244-21.973a9.674 9.674 0 0 1 4.52-5.828c6.075-3.103 14.643 1.465 18.045 3.573a2.001 2.001 0 0 0 2.108 0c3.403-2.108 11.97-6.675 18.046-3.573z"></path><path fill="#0bceb2" d="M132.801 121.63a2.018 2.018 0 0 0 2.797-.427c3.032-4.124 6.6-10.488 2.593-18.105a2 2 0 0 0-3.542 1.86c2.318 4.406 1.637 8.556-2.277 13.878a1.998 1.998 0 0 0 .43 2.794Z"></path><path fill="#2d4356" d="M150.721 146H89.827l7.517-7.464a38.502 38.502 0 0 1-2.444-3.21L84.271 145.88a.43.43 0 0 1-.28.12h-.055a.429.429 0 0 1-.279-.12L34.375 96.947a35.02 35.02 0 0 1-7.868-11.909h28.236c1.704 0 5.42-1.057 6.445-3.079.017-.032 6.575-14.91 6.575-14.91a.417.417 0 0 1 .06 0s8.813 25.83 8.827 25.864a3.55 3.55 0 0 0 2.832 2.058 4.193 4.193 0 0 0 3.865-1.249c.048-.057 12.81-19.087 12.81-19.087a.95.95 0 0 1 .248.005l6.123 7.692c.886 1.046 3.077 2.706 5.18 2.706h7.257a26.93 26.93 0 0 1 2.208-3.998h-9.465a4.504 4.504 0 0 1-2.087-1.244l-6.252-7.854a4.329 4.329 0 0 0-6.208 0c-.048.057-12.81 19.088-12.81 19.088a1.275 1.275 0 0 1-.118.005s-8.812-25.832-8.826-25.865a3.668 3.668 0 0 0-3.383-2.115 3.84 3.84 0 0 0-3.701 1.887c-.017.033-6.66 15.105-6.66 15.105a6.362 6.362 0 0 1-2.92.993H25.176a34.012 34.012 0 0 1 7.987-32.27 34.468 34.468 0 0 1 47.884-2.1 4.42 4.42 0 0 0 5.835 0 34.47 34.47 0 0 1 47.885 2.1 33.99 33.99 0 0 1 7.968 32.27h-10.096a5.964 5.964 0 0 1-2.02 2.772 15.45 15.45 0 0 0-1.319 1.226h12.1a35.053 35.053 0 0 1-1.416 3.148 17.15 17.15 0 0 1 1.735.765 15.292 15.292 0 0 1 1.8 1.102 39.089 39.089 0 0 0 2.55-6.218 1.98 1.98 0 0 0 .132-.443 38.053 38.053 0 0 0-8.537-37.378 38.461 38.461 0 0 0-53.43-2.34.411.411 0 0 1-.538 0 38.46 38.46 0 0 0-53.43 2.34c-14.177 14.868-13.598 38.988 1.288 53.768L78.102 146H17.28a2.017 2.017 0 1 0 0 4H150.72a2.017 2.017 0 1 0 0-4zM96.667 28.833a3 3 0 1 0-3-3 3.003 3.003 0 0 0 3 3zm0-4.5a1.5 1.5 0 1 1-1.5 1.5 1.501 1.501 0 0 1 1.5-1.5zM158.305 70a2 2 0 1 0 2 2 2.002 2.002 0 0 0-2-2zm0 3a1 1 0 1 1 1-1 1.001 1.001 0 0 1-1 1zM124.667 4a2 2 0 1 0 2 2 2.002 2.002 0 0 0-2-2zm0 3a1 1 0 1 1 1-1 1.001 1.001 0 0 1-1 1zM146 40a2 2 0 1 0 2 2 2.002 2.002 0 0 0-2-2zm0 3a1 1 0 1 1 1-1 1.001 1.001 0 0 1-1 1zM41.333 23a2 2 0 1 0-2 2 2.002 2.002 0 0 0 2-2zm-3 0a1 1 0 1 1 1 1 1.001 1.001 0 0 1-1-1z"></path><path fill="#0bceb2" d="m10.888 70.011 1.487-1.955-.939-.532-.955 2.19h-.031l-.97-2.175-.955.548 1.471 1.909v.031l-2.301-.297v1.064l2.316-.297v.031l-1.486 1.908.891.564 1.018-2.206h.031l.939 2.19.986-.563-1.502-1.878v-.031l2.362.282V69.73l-2.362.312v-.031zM5.135 6.514l-.856 1.099.513.324.587-1.27h.017l.541 1.261.568-.324-.865-1.081v-.018L7 6.667v-.613l-1.36.18v-.018l.856-1.126-.541-.306-.549 1.261h-.019l-.558-1.252-.55.315.847 1.099v.018l-1.325-.171v.613l1.334-.171v.018zM164.177 9.958V8.914l-2.317.307v-.03l1.458-1.919-.921-.521-.936 2.148h-.031l-.951-2.133-.937.537 1.443 1.873v.03l-2.257-.292v1.044L161 9.667v.03l-1.458 1.872.874.553.999-2.164h.03l.921 2.149.967-.553-1.473-1.842v-.03l2.317.276zM76.748 6.252l1.258-1.654-.795-.45-.807 1.853h-.027l-.82-1.84-.809.463 1.245 1.616v.026l-1.946-.252v.9l1.959-.251v.027l-1.258 1.614.755.477.861-1.867h.026l.795 1.854.834-.477-1.271-1.589v-.026l1.998.238v-.9l-1.998.265v-.027z"></path></svg>