<svg xmlns="http://www.w3.org/2000/svg" data-name="Layer 1" viewBox="0 0 64 64" id="healthy"><path d="M42.894,4A7.461,7.461,0,0,0,32.726,4L32,4.689,31.274,4A7.461,7.461,0,0,0,21.106,4a6.574,6.574,0,0,0-1.285,8H2v2H21.469l.363.345L32,24l10.168-9.655L42.531,14H62V12H44.179A6.574,6.574,0,0,0,42.894,4ZM38,14H35.566l-2.709,4.515A1,1,0,0,1,32,19a.861.861,0,0,1-.124-.008,1,1,0,0,1-.834-.705l-2.079-6.929-.631,1.95a1,1,0,0,1-.951.692H23V12h3.653l1.4-4.308A.947.947,0,0,1,29.011,7a1,1,0,0,1,.947.713l2.349,7.831,1.836-3.059A1,1,0,0,1,35,12h3Z"></path><polygon points="19 34 19 48 24 48 24 62 40 62 40 48 45 48 45 34 41 34 41 44 23 44 23 34 19 34"></polygon><circle cx="32" cy="39" r="4"></circle></svg>