<svg xmlns="http://www.w3.org/2000/svg" viewBox="0 0 100 100" id="healthy"><path d="M58.3 37.4c1.8 0 3.3-1.5 3.3-3.3v-7.3c0-1.8-1.5-3.3-3.3-3.3H24.9c-1.8 0-3.3 1.5-3.3 3.3v7.3c0 1.8 1.5 3.3 3.3 3.3h33.4zM30.4 66.2h-5c-1.4 0-2.5 1.1-2.5 2.5v4.1c0 1.4 1.1 2.5 2.5 2.5h5c1.4 0 2.5-1.1 2.5-2.5v-4.1c0-1.4-1.1-2.5-2.5-2.5zm0-12.5h-5c-1.4 0-2.5 1.1-2.5 2.5v4.1c0 1.4 1.1 2.5 2.5 2.5h5c1.4 0 2.5-1.1 2.5-2.5v-4.1c0-1.4-1.1-2.5-2.5-2.5zm13.7 0h-5c-1.4 0-2.5 1.1-2.5 2.5v4.1c0 1.4 1.1 2.5 2.5 2.5h5c1.4 0 2.5-1.1 2.5-2.5v-4.1c0-1.4-1.1-2.5-2.5-2.5zm0-12.5h-5c-1.4 0-2.5 1.1-2.5 2.5v4.1c0 1.4 1.1 2.5 2.5 2.5h5c1.4 0 2.5-1.1 2.5-2.5v-4.1c0-1.4-1.1-2.5-2.5-2.5zm-13.7 0h-5c-1.4 0-2.5 1.1-2.5 2.5v4.1c0 1.4 1.1 2.5 2.5 2.5h5c1.4 0 2.5-1.1 2.5-2.5v-4.1c0-1.4-1.1-2.5-2.5-2.5z"></path><path d="M82.2 56.6c-1.8-2-4.6-3-7.9-3-1.6 0-3.1.5-4.5 1.3.4-.7 1-1.4 1.7-2 .9-.6 1.4-1.7 1.3-2.8-.1-1.1-.8-2-1.7-2.4l-.2-.1c-1-.4-2-.3-2.8.3V28.4C68.1 22.1 63 17 56.7 17H26.5c-6.3 0-11.4 5.1-11.4 11.4v43.2c0 6.3 5.1 11.4 11.4 11.4h30.3c.9 0 1.9-.1 2.7-.4.6.2 1.3.4 1.9.4 1.6 0 3.2-.5 4.7-1.5.9-.6 2-.6 2.9 0 1.4 1 3 1.5 4.7 1.5 5.7 0 10.7-9.2 11.2-17.2.2-4-.6-7.1-2.7-9.2zm-22.7-3c-.7-1.2-1-2.7-.8-4.5 2-.2 3.7.1 4.9 1.1 1.2 1 1.9 2.4 2 4.2v.8c-1.5-1.1-3.2-1.7-5-1.7-.3.1-.7.1-1.1.1zm10.3-4.2c.1 0 .3 0 .4.1h.1c.5.2.5.6.6.8 0 .4-.1.8-.4 1-1.3.9-2.2 2.3-2.8 3.6v-.6c0-.4 0-.7.1-1.1V53l.3-1.2c.2-.7.5-1.4.8-1.9.1-.3.5-.5.9-.5zM26.5 81c-5.2 0-9.4-4.2-9.4-9.4V28.4c0-5.2 4.2-9.4 9.4-9.4h30.3c5.2 0 9.4 4.2 9.4 9.4V50c-.4-.5-.8-.9-1.2-1.3-1.2-1-2.8-1.5-4.6-1.6v-3.4c0-1.4-1.1-2.5-2.5-2.5h-5c-1.4 0-2.5 1.1-2.5 2.5v4.1c0 1.4 1.1 2.5 2.5 2.5h3.9c0 1.3.3 2.6.8 3.7-.1 0-.1 0-.2.1h-.1l-.9.3h-.1c-.3.1-.6.2-.8.4h-.1c-.3.1-.6.3-.8.5-.8.6-1.5 1.2-2.1 2-.1.1-.2.2-.3.4-.1.1-.2.3-.3.4-.1.2-.2.4-.3.5 0 .1-.1.2-.1.3-.4.8-.6 1.6-.8 2.5-.1.3-.1.5-.1.8 0 .1 0 .3-.1.4 0 .2 0 .5-.1.7V66.2H39.1c-1.4 0-2.5 1.1-2.5 2.5v4.1c0 1.4 1.1 2.5 2.5 2.5h13.6c1.1 2.3 2.5 4.3 4.1 5.7H26.5zm56.4-15.3c-.5 7.6-5.2 15.3-9.3 15.3-1.2 0-2.4-.4-3.5-1.1-.8-.5-1.7-.8-2.6-.8-.9 0-1.8.3-2.6.8-1.1.8-2.3 1.1-3.5 1.1-1 0-2.1-.5-3.1-1.3-.2-.2-.5-.4-.7-.6l-.1-.1-.6-.6c-.1-.1-.1-.2-.2-.3-.1-.2-.3-.3-.4-.5-.1-.2-.2-.3-.3-.5-.1-.1-.1-.2-.2-.3-1.3-2.1-2.5-4.7-3.1-7.4v-.1c-.1-.4-.2-.7-.2-1.1 0-.1 0-.2-.1-.3-.1-.3-.1-.6-.1-.9 0-.2 0-.5-.1-.7 0-.2 0-.4-.1-.6V63c0-.2.1-.5.1-.7 0-.1 0-.2.1-.3 0-.2.1-.5.2-.7 0-.1 0-.1.1-.2.1-.3.2-.5.3-.8v-.1c.3-.9.8-1.7 1.4-2.3.9-1 2.1-1.6 3.5-2h.1c.2-.1.5-.1.7-.2h.2c.6-.1 1.2-.1 1.8-.1 2.2 0 4.4 1.2 6.1 3.5.2.2.5.4.8.4h.1c.3 0 .5-.2.6-.4 1.7-2.3 3.8-3.5 6.1-3.5 2.8 0 5 .8 6.4 2.4 1.7 1.7 2.4 4.3 2.2 7.7z"></path></svg>