<svg xmlns="http://www.w3.org/2000/svg" width="96" height="96" viewBox="0 0 25.4 25.4" id="honey"><g transform="translate(-83.155 -146.112)"><path style="line-height:normal;font-variant-ligatures:normal;font-variant-position:normal;font-variant-caps:normal;font-variant-numeric:normal;font-variant-alternates:normal;font-feature-settings:normal;text-indent:0;text-align:start;text-decoration-line:none;text-decoration-style:solid;text-decoration-color:#000;text-transform:none;text-orientation:mixed;shape-padding:0;isolation:auto;mix-blend-mode:normal" d="m 92.160215,155.99925 a 0.53141526,0.52884095 75.609822 0 0 -0.24913,0.14049 l -3.100126,3.11372 a 0.53141526,0.52884095 75.609822 0 0 -0.13645,0.51277 l 1.1411,4.25952 a 0.53141526,0.52884095 75.609822 0 0 0.374601,0.37621 l 4.241227,1.1458 a 0.53141526,0.52884095 75.609822 0 0 0.510951,-0.13694 l 3.100227,-3.11334 a 0.53141526,0.52884095 75.609822 0 0 0.136351,-0.51315 l -1.1411,-4.25952 a 0.53141526,0.52884095 75.609822 0 0 -0.374502,-0.37583 l -4.241327,-1.14618 a 0.53141526,0.52884095 75.609822 0 0 -0.261822,-0.004 z m 0.284206,1.10922 3.651323,0.98657 0.982365,3.66699 -2.669057,2.68006 -3.651224,-0.9862 -0.982365,-3.66699 z" color="#000" font-family="sans-serif" font-weight="400" overflow="visible"></path><path style="line-height:normal;font-variant-ligatures:normal;font-variant-position:normal;font-variant-caps:normal;font-variant-numeric:normal;font-variant-alternates:normal;font-feature-settings:normal;text-indent:0;text-align:start;text-decoration-line:none;text-decoration-style:solid;text-decoration-color:#000;text-transform:none;text-orientation:mixed;shape-padding:0;isolation:auto;mix-blend-mode:normal" d="m 99.529132,154.02435 a 0.53141526,0.52884095 75.609822 0 0 -0.24913,0.14049 l -3.100127,3.11372 a 0.53141526,0.52884095 75.609822 0 0 -0.136449,0.51277 l 1.1411,4.25952 a 0.53141526,0.52884095 75.609822 0 0 0.374601,0.37621 l 4.241223,1.1458 a 0.53141526,0.52884095 75.609822 0 0 0.51095,-0.13694 l 3.10023,-3.11334 a 0.53141526,0.52884095 75.609822 0 0 0.13635,-0.51315 l -1.1411,-4.25952 a 0.53141526,0.52884095 75.609822 0 0 -0.3745,-0.37583 l -4.241327,-1.14618 a 0.53141526,0.52884095 75.609822 0 0 -0.261821,-0.004 z m 0.284206,1.10922 3.651322,0.98657 0.98237,3.66699 -2.66906,2.68006 -3.651226,-0.9862 -0.982364,-3.66699 z" color="#000" font-family="sans-serif" font-weight="400" overflow="visible"></path><path style="line-height:normal;font-variant-ligatures:normal;font-variant-position:normal;font-variant-caps:normal;font-variant-numeric:normal;font-variant-alternates:normal;font-feature-settings:normal;text-indent:0;text-align:start;text-decoration-line:none;text-decoration-style:solid;text-decoration-color:#000;text-transform:none;text-orientation:mixed;shape-padding:0;isolation:auto;mix-blend-mode:normal" d="m 94.148101,148.65522 a 0.53141526,0.52884095 75.609822 0 0 -0.24913,0.14049 l -3.100127,3.11372 a 0.53141526,0.52884095 75.609822 0 0 -0.136449,0.51277 l 1.141099,4.25952 a 0.53141526,0.52884095 75.609822 0 0 0.374601,0.37621 l 4.241227,1.1458 a 0.53141526,0.52884095 75.609822 0 0 0.510951,-0.13694 l 3.100227,-3.11334 a 0.53141526,0.52884095 75.609822 0 0 0.13635,-0.51315 l -1.141099,-4.25952 a 0.53141526,0.52884095 75.609822 0 0 -0.374502,-0.37583 l -4.241327,-1.14618 a 0.53141526,0.52884095 75.609822 0 0 -0.261821,-0.004 z m 0.284205,1.10922 3.651323,0.98657 0.982365,3.66699 -2.669057,2.68006 -3.651224,-0.9862 -0.982365,-3.66699 z" color="#000" font-family="sans-serif" font-weight="400" overflow="visible"></path><path style="line-height:normal;font-variant-ligatures:normal;font-variant-position:normal;font-variant-caps:normal;font-variant-numeric:normal;font-variant-alternates:normal;font-feature-settings:normal;text-indent:0;text-align:start;text-decoration-line:none;text-decoration-style:solid;text-decoration-color:#000;text-transform:none;text-orientation:mixed;shape-padding:0;isolation:auto;mix-blend-mode:normal" d="M101.50523 146.68347a.53141526.52884095 75.609822 0 0-.24913.14049l-3.10013 3.11372a.53141526.52884095 75.609822 0 0-.136449.51277l1.1411 4.25952a.53141526.52884095 75.609822 0 0 .374601.37621l4.241228 1.1458a.53141526.52884095 75.609822 0 0 .51095-.13694l3.10023-3.11334a.53141526.52884095 75.609822 0 0 .13635-.51315l-1.1411-4.25952a.53141526.52884095 75.609822 0 0-.3745-.37583l-4.24133-1.14618a.53141526.52884095 75.609822 0 0-.26182-.004zm.2842 1.10922l3.65133.98657.98236 3.66699-2.66906 2.68006-3.65122-.9862-.982365-3.66699zM97.546551 161.38818a.53141526.52884095 75.609822 0 0-.24913.14049l-3.100127 3.11372a.53141526.52884095 75.609822 0 0-.136449.51277l1.141099 4.25952a.53141526.52884095 75.609822 0 0 .374601.37621l4.241227 1.1458a.53141526.52884095 75.609822 0 0 .510948-.13694l3.10023-3.11334a.53141526.52884095 75.609822 0 0 .13635-.51315l-1.1411-4.25952a.53141526.52884095 75.609822 0 0-.3745-.37583l-4.241328-1.14618a.53141526.52884095 75.609822 0 0-.261821-.004zm.284205 1.10922l3.651324.98657.98236 3.66699-2.669053 2.68006-3.651224-.9862-.982365-3.66699zM86.790973 150.62696a.53141526.52884095 75.609822 0 0-.24913.14049l-3.100127 3.11372a.53141526.52884095 75.609822 0 0-.136449.51277l1.141099 4.25952a.53141526.52884095 75.609822 0 0 .374601.37621l4.241227 1.1458a.53141526.52884095 75.609822 0 0 .510951-.13694l3.100228-3.11334a.53141526.52884095 75.609822 0 0 .13635-.51315l-1.1411-4.25952a.53141526.52884095 75.609822 0 0-.374502-.37583l-4.241327-1.14618a.53141526.52884095 75.609822 0 0-.261821-.004zm.284206 1.10922l3.651322.98657.982365 3.66699-2.669057 2.68006-3.651224-.9862-.982364-3.66699zM107.23633 161.83008a.53012659.53012659 0 0 0-.3418.14648c0 0-.4355.4156-.89648.9336-.2305.25899-.46892.54394-.66993.82812-.201.28418-.37315.55046-.44921.88281-.23261 1.0163.29669 2.08186 1.27734 2.38477.98064.30291 1.99006-.37042 2.22266-1.38672.0761-.33235.0406-.64983-.0117-1.00781-.0523-.35799-.13777-.74009-.22657-1.09571-.17758-.71123-.37695-1.32031-.37695-1.32031a.53012659.53012659 0 0 0-.52734-.36523zm-.23242 1.56054c.0491.17357.0584.1768.10937.38086.0835.33429.1609.68979.20508.99219.0442.30241.0385.57026.0273.61914-.11641.50864-.49523.72924-.87695.61133-.38173-.11791-.67305-.62809-.55664-1.13672.0112-.0489.1162-.27251.28125-.50586.16505-.23334.38175-.49591.5957-.73633.10991-.1235.11399-.11796.21485-.22461zM86.121094 160.43359a.53012659.53012659 0 0 0-.484375.36524c0 0-.199372.60908-.376953 1.32031-.08879.35562-.172315.73772-.22461 1.0957-.0523.35799-.08778.67547-.01172 1.00782.232593 1.0163 1.242019 1.68961 2.222656 1.38672.980654-.30291 1.509936-1.36848 1.277344-2.38477-.07606-.33235-.248215-.59864-.449219-.88281-.201005-.28418-.439429-.56913-.669922-.82813-.460986-.51799-.896484-.93359-.896485-.93359a.53012659.53012659 0 0 0-.386718-.14649zm.277344 1.56055c.100856.10664.104932.10111.214843.22461.213953.24041.430655.50299.595703.73633.165049.23334.270063.45697.28125.50586.11641.50864-.176862 1.01881-.558593 1.13672-.38172.1179-.758591-.10269-.875-.61133-.01119-.0489-.01683-.31674.02734-.61914.04418-.30241.121615-.65596.205078-.99024.05114-.20482.06016-.20876.109376-.38281z" color="#000" font-family="sans-serif" font-weight="400" overflow="visible"></path></g></svg>