<svg xmlns="http://www.w3.org/2000/svg" xmlns:xlink="http://www.w3.org/1999/xlink" data-name="Layer 1" viewBox="0 0 512 512" id="report"><defs><linearGradient id="a" x1="256" x2="256" y1="24.127" y2="486.524" gradientUnits="userSpaceOnUse"><stop offset="0" stop-color="#00efd1"></stop><stop offset="1" stop-color="#00acea"></stop></linearGradient><linearGradient id="b" x1="271.863" x2="271.863" y1="24.127" y2="486.524" xlink:href="#a"></linearGradient><linearGradient id="c" x1="256" x2="256" y1="24.127" y2="486.524" xlink:href="#a"></linearGradient></defs><path fill="url(#a)" d="M135.439,351.194l29.961,46.14a8,8,0,0,0,6.709,3.643c.074,0,.147,0,.22,0a8,8,0,0,0,6.719-4.014L192.1,374.227a8.547,8.547,0,0,1,9.249-4.211l55.11,13.846c.173.043.348.081.523.113a62.791,62.791,0,0,0,38.786-5.476,8.123,8.123,0,0,0,.978-.574l77.632-53.3A8,8,0,0,0,376.7,313.9a25.952,25.952,0,0,0-34.608-9.465l-30.741,16.521A31.887,31.887,0,0,0,285.066,307H253a30.216,30.216,0,0,1-13.114-2.943l-3.307-1.567a61.128,61.128,0,0,0-63.615,6.228c-.176.132-.345.279-.509.425L136.83,340.858A8.006,8.006,0,0,0,135.439,351.194Zm47.4-29.865a45.184,45.184,0,0,1,46.774-4.4l3.306,1.536A46.328,46.328,0,0,0,252.993,323h32.073a15.9,15.9,0,0,1,13.377,7.425l-16.526-.716a143.353,143.353,0,0,0-26.1,1.221l-.719.108a8,8,0,0,0,2.193,15.854l.72-.1a127.719,127.719,0,0,1,23.183-1.07l27.355,1.238a8,8,0,0,0,8.361-7.991c0-.911-.039-1.815-.114-2.706l32.9-17.749a9.957,9.957,0,0,1,6.764-1L288.179,364.4a46.693,46.693,0,0,1-28.091,3.877l-54.662-13.733-.1-.024-.113-.029a24.642,24.642,0,0,0-26.989,11.771l-6.535,11.38-19.088-29.4Z"></path><path fill="url(#b)" d="M267.561,294.88c.139.055.28.107.422.154a11.409,11.409,0,0,0,7.76,0c.16-.054.319-.112.477-.176,46.179-18.71,61.724-53.493,56.643-79.665l-.011-.058c-3.9-19.343-18.075-31.842-36.106-31.842-8.022,0-16.51,2.64-24.811,7.68-8.4-5.279-16.816-7.95-25.089-7.95-18.152,0-32.279,12.641-35.986,32.187C205.786,241.654,221.351,276.545,267.561,294.88Zm-40.985-76.672c2.245-11.833,10.012-19.185,20.27-19.185,6.21,0,13.207,2.771,20.233,8.014a8,8,0,0,0,9.483.062c6.936-5.034,14.1-7.806,20.184-7.806,10.224,0,18.044,7.271,20.416,18.978,3.757,19.444-8.848,45.694-45.316,61.083C235.381,264.273,222.8,237.909,226.576,218.208Z"></path><path fill="url(#c)" d="M410.949,88H356.316a43.459,43.459,0,0,0-11.627-22.682A41.5,41.5,0,0,0,315.231,53H303a42.176,42.176,0,0,0-12.169-27.992A41.2,41.2,0,0,0,261.376,13H251.137a41.193,41.193,0,0,0-29.456,12.011A42.171,42.171,0,0,0,209.514,53H197.286a41.491,41.491,0,0,0-29.454,12.317A43.464,43.464,0,0,0,156.2,88H101.051A29.149,29.149,0,0,0,72,117.405V469.753A29.014,29.014,0,0,0,101.051,499h309.9A29.014,29.014,0,0,0,440,469.753V117.405A29.149,29.149,0,0,0,410.949,88ZM233,36.323A25.308,25.308,0,0,1,251.143,29h10.233C275.1,29,286.336,40,287,53H225.514A25.8,25.8,0,0,1,233,36.323ZM172,94.908a25.606,25.606,0,0,1,7.331-18.269A25.187,25.187,0,0,1,197.288,69H315.231A25.966,25.966,0,0,1,341,94.91v40.123l-169,0Zm176.892,56.125a8.092,8.092,0,0,0,8.108-8V133h29V444H126V133h30v10.031a7.843,7.843,0,0,0,7.814,8ZM424,469.753A13,13,0,0,1,410.949,483h-309.9A13,13,0,0,1,88,469.753V117.405A13.133,13.133,0,0,1,101.051,104H156v13H118.467c-4.418,0-8.467,3.472-8.467,7.89V452.265c0,4.419,4.049,7.735,8.467,7.735H393.533c4.418,0,8.467-3.316,8.467-7.735V124.89c0-4.418-4.049-7.89-8.467-7.89H357V104h53.949A13.133,13.133,0,0,1,424,117.405Z"></path></svg>