<svg xmlns="http://www.w3.org/2000/svg" data-name="Layer 1" viewBox="0 0 512 512" id="sleep"><path d="M490.472,100h-33.8A7.4,7.4,0,0,0,449,107.607V255H433V203.191A50.265,50.265,0,0,0,382.742,153H186.292A8.207,8.207,0,0,0,178,160.944V255H141.745a48.136,48.136,0,1,0-29.2,0H63V107.607A7.4,7.4,0,0,0,55.326,100h-33.8A7.282,7.282,0,0,0,14,107.607V404.393A7.282,7.282,0,0,0,21.528,412h33.8A7.4,7.4,0,0,0,63,404.393V346H449v58.393A7.4,7.4,0,0,0,456.674,412h33.8A7.282,7.282,0,0,0,498,404.393V107.607A7.282,7.282,0,0,0,490.472,100ZM95.011,209a32.135,32.135,0,1,1,32.135,32.135A32.172,32.172,0,0,1,95.011,209ZM47,396H30V116H47ZM194,169H382.742A34.248,34.248,0,0,1,417,203.191V255H194ZM449,271v27H63V271ZM63,330V314H449v16Zm419,66H465V116h17Z"></path></svg>