<svg xmlns="http://www.w3.org/2000/svg" viewBox="0 0 24 24" id="trending"><g data-name="Layer 2"><path fill="#fc3a3a" d="M21.75 13a9.759 9.759 0 0 1-8 9.59 9.65 9.65 0 0 1-3.5 0 9.759 9.759 0 0 1-8-9.59 12.055 12.055 0 0 1 1.48-5.51.746.746 0 0 1 1.37.11c.54 1.61 1.68 2.65 2.9 2.65 1.79 0 3.25-2.13 3.25-4.75a6.074 6.074 0 0 0-.77-3.04.784.784 0 0 1-.03-.7.743.743 0 0 1 .55-.42 6.079 6.079 0 0 1 1-.09c5.16 0 9.75 6.57 9.75 11.75Z"></path><path fill="#fff" d="M16 19a3.984 3.984 0 0 1-2.25 3.59 9.65 9.65 0 0 1-3.5 0A3.984 3.984 0 0 1 8 19c0-2.21 4-7 4-7s4 4.79 4 7Z"></path></g></svg>